<svg width="17" height="16" viewBox="0 0 17 16" fill="none" xmlns="http://www.w3.org/2000/svg">
<path d="M8.854 1.146C8.80756 1.09944 8.75238 1.0625 8.69164 1.03729C8.63089 1.01208 8.56577 0.999107 8.5 0.999107C8.43423 0.999107 8.36911 1.01208 8.30837 1.03729C8.24762 1.0625 8.19245 1.09944 8.146 1.146L2.146 7.146C2.0996 7.19252 2.06282 7.24773 2.03777 7.30847C2.01272 7.36921 1.99988 7.4343 2 7.5V14.5C2 14.6326 2.05268 14.7598 2.14645 14.8536C2.24022 14.9473 2.36739 15 2.5 15H7C7.13261 15 7.25979 14.9473 7.35355 14.8536C7.44732 14.7598 7.5 14.6326 7.5 14.5V10.5H9.5V14.5C9.5 14.6326 9.55268 14.7598 9.64645 14.8536C9.74022 14.9473 9.86739 15 10 15H14.5C14.6326 15 14.7598 14.9473 14.8536 14.8536C14.9473 14.7598 15 14.6326 15 14.5V7.5C15.0001 7.4343 14.9873 7.36921 14.9622 7.30847C14.9372 7.24773 14.9004 7.19252 14.854 7.146L13.5 5.793V2.5C13.5 2.36739 13.4473 2.24022 13.3536 2.14645C13.2598 2.05268 13.1326 2 13 2H12C11.8674 2 11.7402 2.05268 11.6464 2.14645C11.5527 2.24022 11.5 2.36739 11.5 2.5V3.793L8.854 1.146ZM3 14V7.707L8.5 2.207L14 7.707V14H10.5V10C10.5 9.86739 10.4473 9.74022 10.3536 9.64645C10.2598 9.55268 10.1326 9.5 10 9.5H7C6.86739 9.5 6.74022 9.55268 6.64645 9.64645C6.55268 9.74022 6.5 9.86739 6.5 10V14H3Z" fill="#FEFCFF"/>
</svg>
