<svg width="17" height="16" viewBox="0 0 17 16" fill="none" xmlns="http://www.w3.org/2000/svg">
<g clip-path="url(#clip0_49_220)">
<path d="M3 3.5C2.86739 3.5 2.74021 3.44732 2.64645 3.35355C2.55268 3.25979 2.5 3.13261 2.5 3C2.5 2.86739 2.55268 2.74021 2.64645 2.64645C2.74021 2.55268 2.86739 2.5 3 2.5H14C14.1326 2.5 14.2598 2.55268 14.3536 2.64645C14.4473 2.74021 14.5 2.86739 14.5 3C14.5 3.13261 14.4473 3.25979 14.3536 3.35355C14.2598 3.44732 14.1326 3.5 14 3.5H3ZM5 1.5C4.86739 1.5 4.74021 1.44732 4.64645 1.35355C4.55268 1.25979 4.5 1.13261 4.5 1C4.5 0.867392 4.55268 0.740215 4.64645 0.646447C4.74021 0.552678 4.86739 0.5 5 0.5H12C12.1326 0.5 12.2598 0.552678 12.3536 0.646447C12.4473 0.740215 12.5 0.867392 12.5 1C12.5 1.13261 12.4473 1.25979 12.3536 1.35355C12.2598 1.44732 12.1326 1.5 12 1.5H5ZM0.5 13C0.5 13.3978 0.658035 13.7794 0.93934 14.0607C1.22064 14.342 1.60218 14.5 2 14.5H15C15.3978 14.5 15.7794 14.342 16.0607 14.0607C16.342 13.7794 16.5 13.3978 16.5 13V6C16.5 5.60218 16.342 5.22064 16.0607 4.93934C15.7794 4.65804 15.3978 4.5 15 4.5H2C1.60218 4.5 1.22064 4.65804 0.93934 4.93934C0.658035 5.22064 0.5 5.60218 0.5 6L0.5 13ZM2 13.5C1.86739 13.5 1.74021 13.4473 1.64645 13.3536C1.55268 13.2598 1.5 13.1326 1.5 13V6C1.5 5.86739 1.55268 5.74021 1.64645 5.64645C1.74021 5.55268 1.86739 5.5 2 5.5H15C15.1326 5.5 15.2598 5.55268 15.3536 5.64645C15.4473 5.74021 15.5 5.86739 15.5 6V13C15.5 13.1326 15.4473 13.2598 15.3536 13.3536C15.2598 13.4473 15.1326 13.5 15 13.5H2Z" fill="#212529"/>
</g>
<defs>
<clipPath id="clip0_49_220">
<rect width="16" height="16" fill="white" transform="translate(0.5)"/>
</clipPath>
</defs>
</svg>
