<svg width="120" height="160" viewBox="0 0 120 160" fill="none" xmlns="http://www.w3.org/2000/svg">
<rect width="120" height="160" rx="8" fill="#FEFCFF"/>
<path d="M28.9661 71C28.8723 70.7131 28.7488 70.456 28.5953 70.2287C28.4448 69.9986 28.2644 69.8026 28.0542 69.6406C27.8468 69.4787 27.611 69.3551 27.3468 69.2699C27.0826 69.1847 26.7928 69.142 26.4775 69.142C25.9604 69.142 25.4902 69.2756 25.0669 69.5426C24.6436 69.8097 24.307 70.2031 24.057 70.723C23.807 71.2429 23.682 71.8807 23.682 72.6364C23.682 73.392 23.8084 74.0298 24.0613 74.5497C24.3141 75.0696 24.6564 75.4631 25.0882 75.7301C25.5201 75.9972 26.0059 76.1307 26.5456 76.1307C27.0456 76.1307 27.486 76.0241 27.8667 75.8111C28.2502 75.5952 28.5485 75.2912 28.7615 74.8991C28.9775 74.5043 29.0854 74.0398 29.0854 73.5057L29.4093 73.5739H26.7843V72.6364H30.1081V73.5739C30.1081 74.2926 29.9547 74.9176 29.6479 75.4489C29.3439 75.9801 28.9235 76.392 28.3865 76.6847C27.8525 76.9744 27.2388 77.1193 26.5456 77.1193C25.7729 77.1193 25.0939 76.9375 24.5087 76.5739C23.9263 76.2102 23.4718 75.6932 23.1451 75.0227C22.8212 74.3523 22.6593 73.5568 22.6593 72.6364C22.6593 71.946 22.7516 71.3253 22.9363 70.7741C23.1238 70.2202 23.388 69.7486 23.7289 69.3594C24.0698 68.9702 24.4732 68.6719 24.9391 68.4645C25.405 68.2571 25.9178 68.1534 26.4775 68.1534C26.9377 68.1534 27.3667 68.223 27.7644 68.3622C28.165 68.4986 28.5215 68.6932 28.834 68.946C29.1493 69.196 29.4121 69.4957 29.6223 69.8452C29.8326 70.1918 29.9775 70.5767 30.057 71H28.9661ZM33.7079 77.1534C33.2931 77.1534 32.9167 77.0753 32.5787 76.919C32.2406 76.7599 31.9721 76.5312 31.7733 76.233C31.5744 75.9318 31.475 75.5682 31.475 75.142C31.475 74.767 31.5488 74.4631 31.6966 74.2301C31.8443 73.9943 32.0417 73.8097 32.2889 73.6761C32.536 73.5426 32.8088 73.4432 33.1071 73.3778C33.4082 73.3097 33.7108 73.2557 34.0147 73.2159C34.4125 73.1648 34.7349 73.1264 34.9821 73.1009C35.2321 73.0724 35.4139 73.0256 35.5275 72.9602C35.644 72.8949 35.7022 72.7812 35.7022 72.6193V72.5852C35.7022 72.1648 35.5872 71.8381 35.3571 71.6051C35.1298 71.3722 34.7846 71.2557 34.3216 71.2557C33.8414 71.2557 33.465 71.3608 33.1923 71.571C32.9196 71.7812 32.7278 72.0057 32.617 72.2443L31.6625 71.9034C31.8329 71.5057 32.0602 71.196 32.3443 70.9744C32.6312 70.75 32.9437 70.5937 33.2818 70.5057C33.6227 70.4148 33.9579 70.3693 34.2875 70.3693C34.4977 70.3693 34.7392 70.3949 35.0119 70.446C35.2875 70.4943 35.5531 70.5952 35.8088 70.7486C36.0673 70.902 36.2818 71.1335 36.4522 71.4432C36.6227 71.7528 36.7079 72.1676 36.7079 72.6875V77H35.7022V76.1136H35.6511C35.5829 76.2557 35.4693 76.4077 35.3102 76.5696C35.1511 76.7315 34.9395 76.8693 34.6752 76.983C34.411 77.0966 34.0886 77.1534 33.7079 77.1534ZM33.8613 76.25C34.2591 76.25 34.5943 76.1719 34.867 76.0156C35.1426 75.8594 35.35 75.6577 35.4892 75.4105C35.6312 75.1634 35.7022 74.9034 35.7022 74.6307V73.7102C35.6596 73.7614 35.5659 73.8082 35.421 73.8509C35.2789 73.8906 35.1142 73.9261 34.9267 73.9574C34.742 73.9858 34.5616 74.0114 34.3855 74.0341C34.2122 74.054 34.0716 74.071 33.9636 74.0852C33.7022 74.1193 33.4579 74.1747 33.2306 74.2514C33.0062 74.3253 32.8244 74.4375 32.6852 74.5881C32.5488 74.7358 32.4806 74.9375 32.4806 75.1932C32.4806 75.5426 32.6099 75.8068 32.8684 75.9858C33.1298 76.1619 33.4608 76.25 33.8613 76.25ZM38.5435 77V70.4545H39.5151V71.4773H39.6003C39.7367 71.1278 39.9569 70.8565 40.2608 70.6634C40.5648 70.4673 40.9299 70.3693 41.356 70.3693C41.7878 70.3693 42.1472 70.4673 42.4341 70.6634C42.7239 70.8565 42.9498 71.1278 43.1117 71.4773H43.1799C43.3475 71.1392 43.5989 70.8707 43.9341 70.6719C44.2694 70.4702 44.6713 70.3693 45.1401 70.3693C45.7253 70.3693 46.204 70.5526 46.5762 70.919C46.9483 71.2827 47.1344 71.8494 47.1344 72.6193V77H46.1287V72.6193C46.1287 72.1364 45.9966 71.7912 45.7324 71.5838C45.4682 71.3764 45.1571 71.2727 44.7992 71.2727C44.339 71.2727 43.9824 71.4119 43.7296 71.6903C43.4767 71.9659 43.3503 72.3153 43.3503 72.7386V77H42.3276V72.517C42.3276 72.1449 42.2069 71.8452 41.9654 71.6179C41.7239 71.3878 41.4128 71.2727 41.0321 71.2727C40.7708 71.2727 40.5265 71.3423 40.2992 71.4815C40.0748 71.6207 39.8929 71.8139 39.7537 72.0611C39.6174 72.3054 39.5492 72.5881 39.5492 72.9091V77H38.5435ZM49.1096 77V68.2727H50.1152V71.4943H50.2005C50.2743 71.3807 50.3766 71.2358 50.5073 71.0597C50.6408 70.8807 50.8311 70.7216 51.0783 70.5824C51.3283 70.4403 51.6664 70.3693 52.0925 70.3693C52.6436 70.3693 53.1294 70.5071 53.5499 70.7827C53.9703 71.0582 54.2985 71.4489 54.5343 71.9545C54.7701 72.4602 54.888 73.0568 54.888 73.7443C54.888 74.4375 54.7701 75.0384 54.5343 75.5469C54.2985 76.0526 53.9718 76.4446 53.5542 76.723C53.1365 76.9986 52.655 77.1364 52.1096 77.1364C51.6891 77.1364 51.3525 77.0668 51.0996 76.9276C50.8468 76.7855 50.6522 76.625 50.5158 76.446C50.3794 76.2642 50.2743 76.1136 50.2005 75.9943H50.0811V77H49.1096ZM50.0982 73.7273C50.0982 74.2216 50.1706 74.6577 50.3155 75.0355C50.4604 75.4105 50.6721 75.7045 50.9505 75.9176C51.2289 76.1278 51.5698 76.233 51.9732 76.233C52.3936 76.233 52.7445 76.1222 53.0257 75.9006C53.3098 75.6761 53.5229 75.375 53.665 74.9972C53.8098 74.6165 53.8823 74.1932 53.8823 73.7273C53.8823 73.267 53.8113 72.8523 53.6692 72.483C53.53 72.1108 53.3184 71.8168 53.0343 71.6009C52.753 71.3821 52.3993 71.2727 51.9732 71.2727C51.5641 71.2727 51.2203 71.3764 50.9419 71.5838C50.6635 71.7884 50.4533 72.0753 50.3113 72.4446C50.1692 72.8111 50.0982 73.2386 50.0982 73.7273ZM58.3525 77.1534C57.9377 77.1534 57.5613 77.0753 57.2232 76.919C56.8851 76.7599 56.6167 76.5312 56.4178 76.233C56.2189 75.9318 56.1195 75.5682 56.1195 75.142C56.1195 74.767 56.1934 74.4631 56.3411 74.2301C56.4888 73.9943 56.6863 73.8097 56.9334 73.6761C57.1806 73.5426 57.4533 73.4432 57.7516 73.3778C58.0527 73.3097 58.3553 73.2557 58.6593 73.2159C59.057 73.1648 59.3794 73.1264 59.6266 73.1009C59.8766 73.0724 60.0584 73.0256 60.1721 72.9602C60.2885 72.8949 60.3468 72.7812 60.3468 72.6193V72.5852C60.3468 72.1648 60.2317 71.8381 60.0016 71.6051C59.7743 71.3722 59.4292 71.2557 58.9661 71.2557C58.486 71.2557 58.1096 71.3608 57.8368 71.571C57.5641 71.7812 57.3723 72.0057 57.2615 72.2443L56.307 71.9034C56.4775 71.5057 56.7047 71.196 56.9888 70.9744C57.2757 70.75 57.5882 70.5937 57.9263 70.5057C58.2672 70.4148 58.6025 70.3693 58.932 70.3693C59.1422 70.3693 59.3837 70.3949 59.6564 70.446C59.932 70.4943 60.1976 70.5952 60.4533 70.7486C60.7118 70.902 60.9263 71.1335 61.0968 71.4432C61.2672 71.7528 61.3525 72.1676 61.3525 72.6875V77H60.3468V76.1136H60.2956C60.2275 76.2557 60.1138 76.4077 59.9547 76.5696C59.7956 76.7315 59.584 76.8693 59.3198 76.983C59.0556 77.0966 58.7331 77.1534 58.3525 77.1534ZM58.5059 76.25C58.9036 76.25 59.2388 76.1719 59.5115 76.0156C59.7871 75.8594 59.9945 75.6577 60.1337 75.4105C60.2757 75.1634 60.3468 74.9034 60.3468 74.6307V73.7102C60.3042 73.7614 60.2104 73.8082 60.0655 73.8509C59.9235 73.8906 59.7587 73.9261 59.5712 73.9574C59.3865 73.9858 59.2061 74.0114 59.03 74.0341C58.8567 74.054 58.7161 74.071 58.6081 74.0852C58.3468 74.1193 58.1025 74.1747 57.8752 74.2514C57.6507 74.3253 57.4689 74.4375 57.3297 74.5881C57.1934 74.7358 57.1252 74.9375 57.1252 75.1932C57.1252 75.5426 57.2544 75.8068 57.513 75.9858C57.7743 76.1619 58.1053 76.25 58.5059 76.25ZM63.188 77V70.4545H64.1596V71.4432H64.2278C64.3471 71.1193 64.563 70.8565 64.8755 70.6548C65.188 70.4531 65.5403 70.3523 65.9324 70.3523C66.0062 70.3523 66.0985 70.3537 66.2093 70.3565C66.3201 70.3594 66.4039 70.3636 66.4608 70.3693V71.392C66.4267 71.3835 66.3485 71.3707 66.2264 71.3537C66.1071 71.3338 65.9806 71.3239 65.8471 71.3239C65.5289 71.3239 65.2449 71.3906 64.9949 71.5241C64.7477 71.6548 64.5517 71.8366 64.4068 72.0696C64.2647 72.2997 64.1937 72.5625 64.1937 72.858V77H63.188ZM73.8745 70.4545V71.3068H70.4824V70.4545H73.8745ZM71.4711 68.8864H72.4767V75.125C72.4767 75.4091 72.5179 75.6222 72.6003 75.7642C72.6855 75.9034 72.7935 75.9972 72.9242 76.0455C73.0577 76.0909 73.1983 76.1136 73.3461 76.1136C73.4569 76.1136 73.5478 76.108 73.6188 76.0966C73.6898 76.0824 73.7466 76.071 73.7892 76.0625L73.9938 76.9659C73.9256 76.9915 73.8304 77.017 73.7083 77.0426C73.5861 77.071 73.4313 77.0852 73.2438 77.0852C72.9597 77.0852 72.6813 77.0241 72.4086 76.902C72.1387 76.7798 71.9142 76.5938 71.7353 76.3438C71.5591 76.0938 71.4711 75.7784 71.4711 75.3977V68.8864ZM75.3873 77V70.4545H76.3929V77H75.3873ZM75.8986 69.3636C75.7026 69.3636 75.5336 69.2969 75.3915 69.1634C75.2523 69.0298 75.1827 68.8693 75.1827 68.6818C75.1827 68.4943 75.2523 68.3338 75.3915 68.2003C75.5336 68.0668 75.7026 68 75.8986 68C76.0946 68 76.2623 68.0668 76.4015 68.2003C76.5435 68.3338 76.6145 68.4943 76.6145 68.6818C76.6145 68.8693 76.5435 69.0298 76.4015 69.1634C76.2623 69.2969 76.0946 69.3636 75.8986 69.3636ZM80.7065 77.1364C80.161 77.1364 79.6795 76.9986 79.2619 76.723C78.8443 76.4446 78.5176 76.0526 78.2818 75.5469C78.046 75.0384 77.9281 74.4375 77.9281 73.7443C77.9281 73.0568 78.046 72.4602 78.2818 71.9545C78.5176 71.4489 78.8457 71.0582 79.2662 70.7827C79.6866 70.5071 80.1724 70.3693 80.7235 70.3693C81.1497 70.3693 81.4863 70.4403 81.7335 70.5824C81.9835 70.7216 82.1738 70.8807 82.3045 71.0597C82.438 71.2358 82.5417 71.3807 82.6156 71.4943H82.7008V68.2727H83.7065V77H82.7349V75.9943H82.6156C82.5417 76.1136 82.4366 76.2642 82.3002 76.446C82.1639 76.625 81.9693 76.7855 81.7164 76.9276C81.4636 77.0668 81.127 77.1364 80.7065 77.1364ZM80.8429 76.233C81.2463 76.233 81.5872 76.1278 81.8656 75.9176C82.144 75.7045 82.3556 75.4105 82.5005 75.0355C82.6454 74.6577 82.7179 74.2216 82.7179 73.7273C82.7179 73.2386 82.6468 72.8111 82.5048 72.4446C82.3627 72.0753 82.1525 71.7884 81.8741 71.5838C81.5957 71.3764 81.252 71.2727 80.8429 71.2727C80.4167 71.2727 80.0616 71.3821 79.7775 71.6009C79.4963 71.8168 79.2846 72.1108 79.1426 72.483C79.0034 72.8523 78.9338 73.267 78.9338 73.7273C78.9338 74.1932 79.0048 74.6165 79.1468 74.9972C79.2917 75.375 79.5048 75.6761 79.786 75.9006C80.0701 76.1222 80.4224 76.233 80.8429 76.233ZM87.6142 77.1534C87.1994 77.1534 86.823 77.0753 86.4849 76.919C86.1468 76.7599 85.8784 76.5312 85.6795 76.233C85.4806 75.9318 85.3812 75.5682 85.3812 75.142C85.3812 74.767 85.4551 74.4631 85.6028 74.2301C85.7505 73.9943 85.948 73.8097 86.1951 73.6761C86.4423 73.5426 86.715 73.4432 87.0133 73.3778C87.3145 73.3097 87.617 73.2557 87.921 73.2159C88.3187 73.1648 88.6412 73.1264 88.8883 73.1009C89.1383 73.0724 89.3201 73.0256 89.4338 72.9602C89.5502 72.8949 89.6085 72.7812 89.6085 72.6193V72.5852C89.6085 72.1648 89.4934 71.8381 89.2633 71.6051C89.036 71.3722 88.6909 71.2557 88.2278 71.2557C87.7477 71.2557 87.3713 71.3608 87.0985 71.571C86.8258 71.7812 86.6341 72.0057 86.5233 72.2443L85.5687 71.9034C85.7392 71.5057 85.9664 71.196 86.2505 70.9744C86.5375 70.75 86.85 70.5937 87.188 70.5057C87.5289 70.4148 87.8642 70.3693 88.1937 70.3693C88.4039 70.3693 88.6454 70.3949 88.9181 70.446C89.1937 70.4943 89.4593 70.5952 89.715 70.7486C89.9735 70.902 90.188 71.1335 90.3585 71.4432C90.5289 71.7528 90.6142 72.1676 90.6142 72.6875V77H89.6085V76.1136H89.5574C89.4892 76.2557 89.3755 76.4077 89.2164 76.5696C89.0574 76.7315 88.8457 76.8693 88.5815 76.983C88.3173 77.0966 87.9949 77.1534 87.6142 77.1534ZM87.7676 76.25C88.1653 76.25 88.5005 76.1719 88.7733 76.0156C89.0488 75.8594 89.2562 75.6577 89.3954 75.4105C89.5375 75.1634 89.6085 74.9034 89.6085 74.6307V73.7102C89.5659 73.7614 89.4721 73.8082 89.3272 73.8509C89.1852 73.8906 89.0204 73.9261 88.8329 73.9574C88.6483 73.9858 88.4679 74.0114 88.2917 74.0341C88.1184 74.054 87.9778 74.071 87.8699 74.0852C87.6085 74.1193 87.3642 74.1747 87.1369 74.2514C86.9125 74.3253 86.7306 74.4375 86.5914 74.5881C86.4551 74.7358 86.3869 74.9375 86.3869 75.1932C86.3869 75.5426 86.5162 75.8068 86.7747 75.9858C87.036 76.1619 87.367 76.25 87.7676 76.25ZM93.3873 74.6136L93.3702 73.3693H93.5748L96.4384 70.4545H97.6827L94.6316 73.5398H94.5463L93.3873 74.6136ZM92.4498 77V68.2727H93.4554V77H92.4498ZM96.6088 77L94.052 73.7614L94.7679 73.0625L97.8873 77H96.6088ZM40.7397 85.4545V86.3068H37.3477V85.4545H40.7397ZM38.3363 83.8864H39.342V90.125C39.342 90.4091 39.3832 90.6222 39.4656 90.7642C39.5508 90.9034 39.6587 90.9972 39.7894 91.0455C39.9229 91.0909 40.0636 91.1136 40.2113 91.1136C40.3221 91.1136 40.413 91.108 40.484 91.0966C40.555 91.0824 40.6119 91.071 40.6545 91.0625L40.859 91.9659C40.7908 91.9915 40.6957 92.017 40.5735 92.0426C40.4513 92.071 40.2965 92.0852 40.109 92.0852C39.8249 92.0852 39.5465 92.0241 39.2738 91.902C39.0039 91.7798 38.7795 91.5938 38.6005 91.3438C38.4244 91.0938 38.3363 90.7784 38.3363 90.3977V83.8864ZM44.9265 92.1364C44.2958 92.1364 43.7518 91.9972 43.2944 91.7188C42.8398 91.4375 42.489 91.0455 42.2418 90.5426C41.9975 90.0369 41.8754 89.4489 41.8754 88.7784C41.8754 88.108 41.9975 87.517 42.2418 87.0057C42.489 86.4915 42.8327 86.0909 43.2731 85.804C43.7163 85.5142 44.2333 85.3693 44.8242 85.3693C45.1651 85.3693 45.5018 85.4261 45.8342 85.5398C46.1665 85.6534 46.4691 85.8381 46.7418 86.0938C47.0146 86.3466 47.2319 86.6818 47.3938 87.0994C47.5558 87.517 47.6367 88.0312 47.6367 88.642V89.0682H42.5913V88.1989H46.614C46.614 87.8295 46.5401 87.5 46.3924 87.2102C46.2475 86.9205 46.0401 86.6918 45.7702 86.5241C45.5032 86.3565 45.1879 86.2727 44.8242 86.2727C44.4237 86.2727 44.0771 86.3722 43.7844 86.571C43.4947 86.767 43.2717 87.0227 43.1154 87.3381C42.9592 87.6534 42.881 87.9915 42.881 88.3523V88.9318C42.881 89.4261 42.9663 89.8452 43.1367 90.1889C43.31 90.5298 43.5501 90.7898 43.8569 90.9688C44.1637 91.1449 44.5202 91.233 44.9265 91.233C45.1907 91.233 45.4293 91.196 45.6424 91.1222C45.8583 91.0455 46.0444 90.9318 46.2006 90.7812C46.3569 90.6278 46.4776 90.4375 46.5629 90.2102L47.5344 90.483C47.4322 90.8125 47.2603 91.1023 47.0188 91.3523C46.7773 91.5994 46.479 91.7926 46.1239 91.9318C45.7688 92.0682 45.3697 92.1364 44.9265 92.1364ZM49.1665 92V85.4545H50.1381V86.4432H50.2063C50.3256 86.1193 50.5415 85.8565 50.854 85.6548C51.1665 85.4531 51.5188 85.3523 51.9109 85.3523C51.9847 85.3523 52.0771 85.3537 52.1879 85.3565C52.2987 85.3594 52.3825 85.3636 52.4393 85.3693V86.392C52.4052 86.3835 52.3271 86.3707 52.2049 86.3537C52.0856 86.3338 51.9592 86.3239 51.8256 86.3239C51.5075 86.3239 51.2234 86.3906 50.9734 86.5241C50.7262 86.6548 50.5302 86.8366 50.3853 87.0696C50.2433 87.2997 50.1722 87.5625 50.1722 87.858V92H49.1665ZM58.2678 86.9205L57.3643 87.1761C57.3075 87.0256 57.2237 86.8793 57.1129 86.7372C57.005 86.5923 56.8572 86.473 56.6697 86.3793C56.4822 86.2855 56.2422 86.2386 55.9496 86.2386C55.549 86.2386 55.2152 86.331 54.9482 86.5156C54.6839 86.6974 54.5518 86.929 54.5518 87.2102C54.5518 87.4602 54.6428 87.6577 54.8246 87.8026C55.0064 87.9474 55.2905 88.0682 55.6768 88.1648L56.6484 88.4034C57.2337 88.5455 57.6697 88.7628 57.9567 89.0554C58.2436 89.3452 58.3871 89.7187 58.3871 90.1761C58.3871 90.5511 58.2791 90.8864 58.0632 91.1818C57.8501 91.4773 57.5518 91.7102 57.1683 91.8807C56.7848 92.0511 56.3388 92.1364 55.8303 92.1364C55.1626 92.1364 54.6101 91.9915 54.1726 91.7017C53.7351 91.4119 53.4581 90.9886 53.3416 90.4318L54.2962 90.1932C54.3871 90.5455 54.5589 90.8097 54.8118 90.9858C55.0675 91.1619 55.4013 91.25 55.8132 91.25C56.282 91.25 56.6541 91.1506 56.9297 90.9517C57.2081 90.75 57.3473 90.5085 57.3473 90.2273C57.3473 90 57.2678 89.8097 57.1087 89.6562C56.9496 89.5 56.7053 89.3835 56.3757 89.3068L55.2848 89.0511C54.6854 88.9091 54.245 88.6889 53.9638 88.3906C53.6854 88.0895 53.5462 87.7131 53.5462 87.2614C53.5462 86.892 53.6499 86.5653 53.8572 86.2812C54.0675 85.9972 54.353 85.7741 54.7138 85.6122C55.0774 85.4503 55.4893 85.3693 55.9496 85.3693C56.5973 85.3693 57.1058 85.5114 57.4751 85.7955C57.8473 86.0795 58.1115 86.4545 58.2678 86.9205ZM62.6452 92.1364C62.0146 92.1364 61.4705 91.9972 61.0131 91.7188C60.5586 91.4375 60.2077 91.0455 59.9606 90.5426C59.7163 90.0369 59.5941 89.4489 59.5941 88.7784C59.5941 88.108 59.7163 87.517 59.9606 87.0057C60.2077 86.4915 60.5515 86.0909 60.9918 85.804C61.435 85.5142 61.9521 85.3693 62.543 85.3693C62.8839 85.3693 63.2205 85.4261 63.5529 85.5398C63.8853 85.6534 64.1879 85.8381 64.4606 86.0938C64.7333 86.3466 64.9506 86.6818 65.1126 87.0994C65.2745 87.517 65.3555 88.0312 65.3555 88.642V89.0682H60.31V88.1989H64.3327C64.3327 87.8295 64.2589 87.5 64.1112 87.2102C63.9663 86.9205 63.7589 86.6918 63.489 86.5241C63.2219 86.3565 62.9066 86.2727 62.543 86.2727C62.1424 86.2727 61.7958 86.3722 61.5032 86.571C61.2134 86.767 60.9904 87.0227 60.8342 87.3381C60.6779 87.6534 60.5998 87.9915 60.5998 88.3523V88.9318C60.5998 89.4261 60.685 89.8452 60.8555 90.1889C61.0288 90.5298 61.2688 90.7898 61.5756 90.9688C61.8825 91.1449 62.239 91.233 62.6452 91.233C62.9094 91.233 63.1481 91.196 63.3612 91.1222C63.5771 91.0455 63.7631 90.9318 63.9194 90.7812C64.0756 90.6278 64.1964 90.4375 64.2816 90.2102L65.2532 90.483C65.1509 90.8125 64.979 91.1023 64.7376 91.3523C64.4961 91.5994 64.1978 91.7926 63.8427 91.9318C63.4876 92.0682 63.0884 92.1364 62.6452 92.1364ZM69.3569 92.1364C68.8114 92.1364 68.3299 91.9986 67.9123 91.723C67.4947 91.4446 67.168 91.0526 66.9322 90.5469C66.6964 90.0384 66.5785 89.4375 66.5785 88.7443C66.5785 88.0568 66.6964 87.4602 66.9322 86.9545C67.168 86.4489 67.4961 86.0582 67.9165 85.7827C68.337 85.5071 68.8228 85.3693 69.3739 85.3693C69.8001 85.3693 70.1367 85.4403 70.3839 85.5824C70.6339 85.7216 70.8242 85.8807 70.9549 86.0597C71.0884 86.2358 71.1921 86.3807 71.266 86.4943H71.3512V83.2727H72.3569V92H71.3853V90.9943H71.266C71.1921 91.1136 71.087 91.2642 70.9506 91.446C70.8143 91.625 70.6197 91.7855 70.3668 91.9276C70.114 92.0668 69.7773 92.1364 69.3569 92.1364ZM69.4933 91.233C69.8967 91.233 70.2376 91.1278 70.516 90.9176C70.7944 90.7045 71.006 90.4105 71.1509 90.0355C71.2958 89.6577 71.3683 89.2216 71.3683 88.7273C71.3683 88.2386 71.2972 87.8111 71.1552 87.4446C71.0131 87.0753 70.8029 86.7884 70.5245 86.5838C70.2461 86.3764 69.9023 86.2727 69.4933 86.2727C69.0671 86.2727 68.712 86.3821 68.4279 86.6009C68.1467 86.8168 67.935 87.1108 67.793 87.483C67.6538 87.8523 67.5842 88.267 67.5842 88.7273C67.5842 89.1932 67.6552 89.6165 67.7972 89.9972C67.9421 90.375 68.1552 90.6761 68.4364 90.9006C68.7205 91.1222 69.0728 91.233 69.4933 91.233ZM74.3384 92V85.4545H75.3441V92H74.3384ZM74.8498 84.3636C74.6538 84.3636 74.4847 84.2969 74.3427 84.1634C74.2035 84.0298 74.1339 83.8693 74.1339 83.6818C74.1339 83.4943 74.2035 83.3338 74.3427 83.2003C74.4847 83.0668 74.6538 83 74.8498 83C75.0458 83 75.2134 83.0668 75.3526 83.2003C75.4947 83.3338 75.5657 83.4943 75.5657 83.6818C75.5657 83.8693 75.4947 84.0298 75.3526 84.1634C75.2134 84.2969 75.0458 84.3636 74.8498 84.3636ZM79.1122 92.1534C78.6974 92.1534 78.321 92.0753 77.983 91.919C77.6449 91.7599 77.3764 91.5312 77.1776 91.233C76.9787 90.9318 76.8793 90.5682 76.8793 90.142C76.8793 89.767 76.9531 89.4631 77.1009 89.2301C77.2486 88.9943 77.446 88.8097 77.6932 88.6761C77.9403 88.5426 78.2131 88.4432 78.5114 88.3778C78.8125 88.3097 79.1151 88.2557 79.419 88.2159C79.8168 88.1648 80.1392 88.1264 80.3864 88.1009C80.6364 88.0724 80.8182 88.0256 80.9318 87.9602C81.0483 87.8949 81.1065 87.7812 81.1065 87.6193V87.5852C81.1065 87.1648 80.9915 86.8381 80.7614 86.6051C80.5341 86.3722 80.1889 86.2557 79.7259 86.2557C79.2457 86.2557 78.8693 86.3608 78.5966 86.571C78.3239 86.7812 78.1321 87.0057 78.0213 87.2443L77.0668 86.9034C77.2372 86.5057 77.4645 86.196 77.7486 85.9744C78.0355 85.75 78.348 85.5937 78.6861 85.5057C79.027 85.4148 79.3622 85.3693 79.6918 85.3693C79.902 85.3693 80.1435 85.3949 80.4162 85.446C80.6918 85.4943 80.9574 85.5952 81.2131 85.7486C81.4716 85.902 81.6861 86.1335 81.8565 86.4432C82.027 86.7528 82.1122 87.1676 82.1122 87.6875V92H81.1065V91.1136H81.0554C80.9872 91.2557 80.8736 91.4077 80.7145 91.5696C80.5554 91.7315 80.3438 91.8693 80.0795 91.983C79.8153 92.0966 79.4929 92.1534 79.1122 92.1534ZM79.2656 91.25C79.6634 91.25 79.9986 91.1719 80.2713 91.0156C80.5469 90.8594 80.7543 90.6577 80.8935 90.4105C81.0355 90.1634 81.1065 89.9034 81.1065 89.6307V88.7102C81.0639 88.7614 80.9702 88.8082 80.8253 88.8509C80.6832 88.8906 80.5185 88.9261 80.331 88.9574C80.1463 88.9858 79.9659 89.0114 79.7898 89.0341C79.6165 89.054 79.4759 89.071 79.3679 89.0852C79.1065 89.1193 78.8622 89.1747 78.6349 89.2514C78.4105 89.3253 78.2287 89.4375 78.0895 89.5881C77.9531 89.7358 77.8849 89.9375 77.8849 90.1932C77.8849 90.5426 78.0142 90.8068 78.2727 90.9858C78.5341 91.1619 78.8651 91.25 79.2656 91.25Z" fill="#212529"/>
</svg>
