<svg width="16" height="16" viewBox="0 0 16 16" fill="none" xmlns="http://www.w3.org/2000/svg">
<path d="M8 0C5.879 0.00237154 3.84554 0.845988 2.34577 2.34577C0.845988 3.84554 0.00237154 5.879 0 8C0.00355373 10.1206 0.84755 12.1534 2.34707 13.6529C3.84659 15.1524 5.87936 15.9964 8 16C10.1217 16 12.1566 15.1571 13.6569 13.6569C15.1571 12.1566 16 10.1217 16 8C16 5.87827 15.1571 3.84344 13.6569 2.34315C12.1566 0.842855 10.1217 0 8 0ZM12.8659 12.6163C12.4166 11.7101 11.723 10.9474 10.8633 10.4144C10.0037 9.88143 9.01215 9.59928 8.00065 9.59981C6.98915 9.60035 5.99793 9.88354 5.13882 10.4175C4.27971 10.9514 3.5869 11.7147 3.13856 12.6214C1.94235 11.3808 1.2758 9.7234 1.28 8C1.28 6.21775 1.988 4.50849 3.24824 3.24824C4.50849 1.988 6.21775 1.28 8 1.28C9.78225 1.28 11.4915 1.988 12.7518 3.24824C14.012 4.50849 14.72 6.21775 14.72 8C14.724 9.72099 14.0592 11.3762 12.8659 12.6163ZM8 3.2C7.43039 3.2 6.87357 3.36891 6.39996 3.68537C5.92634 4.00183 5.55721 4.45162 5.33923 4.97787C5.12125 5.50412 5.06421 6.08319 5.17534 6.64186C5.28646 7.20053 5.56076 7.71369 5.96353 8.11647C6.36631 8.51924 6.87947 8.79354 7.43814 8.90466C7.9968 9.01579 8.57588 8.95875 9.10213 8.74077C9.62838 8.52279 10.0782 8.15366 10.3946 7.68004C10.7111 7.20643 10.88 6.64961 10.88 6.08C10.88 5.70179 10.8055 5.32729 10.6608 4.97787C10.516 4.62845 10.3039 4.31097 10.0365 4.04353C9.76903 3.7761 9.45155 3.56396 9.10213 3.41923C8.75271 3.27449 8.37821 3.2 8 3.2Z" fill="#FEFCFF"/>
</svg>
