<svg width="17" height="16" viewBox="0 0 17 16" fill="none" xmlns="http://www.w3.org/2000/svg">
<path d="M15.415 7.97738C15.4151 9.34594 14.9832 10.6796 14.1809 11.7883C13.3785 12.897 12.2468 13.7242 10.9468 14.152C9.6468 14.5798 8.24496 14.5863 6.94104 14.1707C5.63712 13.7551 4.49764 12.9385 3.685 11.8374L4.49 11.2424C5.22441 12.2398 6.27402 12.9602 7.46884 13.2867C8.66366 13.6133 9.93374 13.527 11.0734 13.0418C12.2131 12.5566 13.1556 11.7009 13.7483 10.6133C14.3411 9.52569 14.5493 8.26983 14.3394 7.04911C14.1294 5.82838 13.5136 4.71426 12.5915 3.88717C11.6695 3.06008 10.4952 2.56844 9.25894 2.49187C8.02266 2.4153 6.79673 2.75829 5.77967 3.46528C4.76261 4.17228 4.01398 5.20189 3.655 6.38738L4.155 6.06238L4.715 6.89238L3.215 7.89238C3.12662 7.95197 3.0215 7.98175 2.915 7.97738C2.8331 7.97751 2.75242 7.95751 2.68006 7.91915C2.6077 7.88079 2.54586 7.82524 2.5 7.75738L1.5 6.25738L2.33 5.69738L2.67 6.19738C3.10381 4.69448 4.06505 3.39843 5.37733 2.54707C6.68961 1.6957 8.2649 1.34613 9.81412 1.5625C11.3633 1.77886 12.7826 2.54666 13.8114 3.72499C14.8402 4.90332 15.4096 6.41314 15.415 7.97738ZM8.415 4.47738V7.97738C8.41462 8.04319 8.42723 8.10842 8.45211 8.16934C8.477 8.23026 8.51366 8.28566 8.56 8.33238L10.06 9.83238L10.77 9.12238L9.415 7.77238V4.47738H8.415Z" fill="#212529"/>
</svg>
