<svg xmlns="http://www.w3.org/2000/svg" width="24" height="24" viewBox="0 0 24 24" fill="none">
  <path d="M4.79148 22.363L4.79153 22.3627L6.03653 15.2677L6.08281 15.0039L5.88892 14.8192L0.604767 9.78557C0.509269 9.69443 0.479993 9.56292 0.51787 9.43577C0.555514 9.30941 0.644047 9.23282 0.753666 9.21741L0.754398 9.2173L8.1014 8.1733L8.35981 8.13658L8.47742 7.90357L11.7534 1.41321C11.8639 1.19429 12.1407 1.19429 12.2513 1.41321L15.5272 7.90357L15.6448 8.13658L15.9032 8.1733L23.2502 9.2173L23.2509 9.2174C23.3606 9.23282 23.449 9.30941 23.4865 9.43549C23.5241 9.56223 23.495 9.69365 23.3989 9.78505L23.3986 9.78529L18.1156 14.8193L17.9218 15.004L17.9681 15.2677L19.2131 22.3627L19.2131 22.363C19.2382 22.5053 19.182 22.6211 19.0964 22.6891C19.0126 22.7555 18.9129 22.7697 18.8149 22.7195C18.8149 22.7194 18.8148 22.7194 18.8148 22.7194L12.2286 19.3355L12 19.2181L11.7714 19.3356L5.18985 22.7194C5.09178 22.7697 4.99206 22.7555 4.90825 22.6891C4.82259 22.6211 4.76642 22.5053 4.79148 22.363Z" stroke="#FAB015"/>
</svg>