<svg xmlns="http://www.w3.org/2000/svg" width="24" height="24" viewBox="0 0 24 24" fill="none">
  <path d="M5.54406 15.1813L4.29906 22.2763C4.18205 22.9408 4.83906 23.4613 5.41806 23.1643L5.18985 22.7194L11.7714 19.3356L12 19.2181L12.2286 19.3355L18.8148 22.7194C18.8148 22.7194 18.8149 22.7194 18.8149 22.7195C18.9129 22.7697 19.0126 22.7555 19.0964 22.6891C19.182 22.6211 19.2382 22.5053 19.2131 22.363L19.2131 22.3627L17.9681 15.2677L17.9218 15.004L18.1156 14.8193L23.3986 9.78529L23.3989 9.78505C23.495 9.69364 23.5241 9.56223 23.4865 9.43549C23.449 9.30941 23.3606 9.23282 23.2509 9.2174L23.2502 9.2173L15.9032 8.1733L15.6448 8.13658L15.5272 7.90357L12.2513 1.41321C12.1407 1.19429 11.8639 1.19429 11.7534 1.41321L8.47742 7.90357L8.35981 8.13658L8.1014 8.1733L0.754398 9.2173L0.753666 9.21741C0.644047 9.23282 0.555514 9.30941 0.51787 9.43577C0.48001 9.56286 0.509243 9.69431 0.604641 9.78545C0.604683 9.78549 0.604725 9.78553 0.604767 9.78557L5.88892 14.8192L6.08281 15.0039L6.03653 15.2677L4.79153 22.3627L4.79148 22.363C4.76642 22.5053 4.82258 22.6211 4.90825 22.6891C4.99194 22.7555 5.0915 22.7697 5.18944 22.7196L5.54406 15.1813ZM5.54406 15.1813L0.259555 10.1473L5.54406 15.1813Z" fill="#FAB015" stroke="#FAB015"/>
</svg>