<svg width="28" height="28" viewBox="0 0 28 28" fill="none" xmlns="http://www.w3.org/2000/svg">
<rect width="28" height="28" rx="14" fill="#7F2CCB"/>
<g clip-path="url(#clip0_209_161)">
<path d="M14 14.625C11.2431 14.625 9 12.3819 9 9.625C9 6.86813 11.2431 4.625 14 4.625C16.7569 4.625 19 6.86813 19 9.625C19 12.3819 16.7569 14.625 14 14.625ZM14 5.875C11.9319 5.875 10.25 7.55687 10.25 9.625C10.25 11.6931 11.9319 13.375 14 13.375C16.0681 13.375 17.75 11.6931 17.75 9.625C17.75 7.55687 16.0681 5.875 14 5.875Z" fill="#FEFCFF"/>
<path d="M14.25 12.25H13.75C13.3997 12.2486 13.0591 12.1346 12.7785 11.9248C12.498 11.7151 12.2923 11.4206 12.1919 11.085C12.1665 11.0057 12.1573 10.9221 12.1647 10.8392C12.1722 10.7562 12.1961 10.6756 12.2351 10.602C12.2741 10.5285 12.3274 10.4635 12.3919 10.4108C12.4564 10.3581 12.5308 10.3189 12.6106 10.2953C12.6905 10.2718 12.7743 10.2645 12.857 10.2738C12.9398 10.2831 13.0198 10.3088 13.0925 10.3495C13.1652 10.3901 13.229 10.4449 13.2802 10.5106C13.3314 10.5763 13.3689 10.6515 13.3906 10.7319C13.4375 10.89 13.5856 11.0006 13.75 11.0006H14.25C14.3495 11.0006 14.445 10.9611 14.5154 10.8907C14.5858 10.8203 14.6253 10.7249 14.6253 10.6253C14.6253 10.5258 14.5858 10.4303 14.5154 10.3599C14.445 10.2895 14.3495 10.25 14.25 10.25H13.75C12.8538 10.25 12.125 9.52062 12.125 8.625C12.125 7.72937 12.8538 7 13.75 7H14.25C14.9506 7 15.5694 7.44625 15.7912 8.11125C15.8185 8.18941 15.8299 8.27221 15.8249 8.35483C15.8199 8.43745 15.7985 8.51825 15.762 8.59254C15.7255 8.66683 15.6746 8.73313 15.6123 8.78759C15.5499 8.84205 15.4774 8.88358 15.3989 8.90978C15.3204 8.93598 15.2374 8.94632 15.1549 8.94021C15.0723 8.93409 14.9918 8.91164 14.918 8.87416C14.8442 8.83668 14.7786 8.78491 14.725 8.72186C14.6714 8.65881 14.6308 8.58573 14.6056 8.50687C14.581 8.43204 14.5333 8.3669 14.4695 8.32077C14.4056 8.27464 14.3288 8.24987 14.25 8.25H13.75C13.6505 8.25 13.5552 8.28951 13.4848 8.35983C13.4145 8.43016 13.375 8.52554 13.375 8.625C13.375 8.72446 13.4145 8.81984 13.4848 8.89016C13.5552 8.96049 13.6505 9 13.75 9H14.25C15.1462 9 15.875 9.72938 15.875 10.625C15.875 11.5206 15.1462 12.25 14.25 12.25Z" fill="#FEFCFF"/>
<path d="M14.625 6.0979C14.4443 6.0979 14.2777 6.01639 14.1517 5.88299C14.125 5.84594 14.0917 5.80888 14.0717 5.76442C14.0452 5.72662 14.0249 5.68398 14.0117 5.63843C13.9925 5.59633 13.9788 5.55142 13.971 5.50504C13.965 5.45316 13.9583 5.4087 13.9583 5.35682C13.9583 5.16414 14.031 4.97146 14.1517 4.83065C14.3983 4.55645 14.845 4.55645 15.0983 4.83065C15.2183 4.97146 15.2917 5.16414 15.2917 5.35682C15.2917 5.4087 15.285 5.45316 15.2777 5.50504C15.2707 5.55156 15.2572 5.59658 15.2377 5.63843C15.2241 5.68386 15.2039 5.72644 15.1777 5.76442C15.151 5.80888 15.1243 5.84594 15.0977 5.88299C14.9717 6.01639 14.7983 6.0979 14.625 6.0979ZM14.625 12.0266C14.4443 12.0266 14.2777 11.9451 14.1517 11.8117C14.125 11.7746 14.0917 11.7376 14.0717 11.6931C14.0452 11.6553 14.0249 11.6127 14.0117 11.5671C13.9925 11.525 13.9788 11.4801 13.971 11.4337C13.965 11.3818 13.9583 11.3374 13.9583 11.2855C13.9583 11.0928 14.031 10.9001 14.1517 10.7593C14.3983 10.4851 14.845 10.4851 15.0983 10.7593C15.2183 10.9001 15.2917 11.0928 15.2917 11.2855C15.2917 11.3374 15.285 11.3818 15.2777 11.4337C15.2707 11.4802 15.2572 11.5252 15.2377 11.5671C15.2241 11.6125 15.2039 11.6551 15.1777 11.6931C15.151 11.7376 15.1243 11.7746 15.0977 11.8117C14.9717 11.9451 14.7983 12.0266 14.625 12.0266ZM15.9583 24.625H5.29167C5.11486 24.625 4.94529 24.5469 4.82026 24.4079C4.69524 24.269 4.625 24.0805 4.625 23.8839V17.2142C4.625 17.0178 4.695 16.8288 4.82033 16.6902C4.97633 16.5161 6.39367 14.9909 7.95833 14.9909C9.25433 14.9909 10.9263 16.0796 11.4883 16.4731H14.625C14.9168 16.4736 15.205 16.5449 15.4694 16.6822C15.7338 16.8194 15.968 17.0193 16.1556 17.2677C16.3433 17.5161 16.4798 17.8071 16.5557 18.1203C16.6316 18.4335 16.645 18.7614 16.595 19.081L21.8557 16.6443C22.1595 16.5032 22.4901 16.4478 22.8179 16.4831C23.1456 16.5184 23.4605 16.6433 23.7343 16.8466C24.0086 17.0493 24.2334 17.3242 24.3888 17.647C24.5443 17.9697 24.6254 18.3302 24.625 18.6963C24.625 18.8259 24.5945 18.9532 24.5365 19.0655C24.4785 19.1779 24.395 19.2713 24.2943 19.3366L16.2943 24.5242C16.1923 24.5902 16.0764 24.625 15.9583 24.625ZM5.95833 23.1428H15.7777L23.2043 18.3273C23.1525 18.228 23.0809 18.1433 22.995 18.0797C22.9041 18.0111 22.7991 17.969 22.6897 17.9572C22.5804 17.9454 22.4701 17.9644 22.369 18.0123L16.2157 20.8625C16.1341 20.9002 16.0467 20.9196 15.9583 20.9196H10.625C10.4482 20.9196 10.2786 20.8415 10.1536 20.7025C10.0286 20.5635 9.95833 20.375 9.95833 20.1785C9.95833 19.9819 10.0286 19.7935 10.1536 19.6545C10.2786 19.5155 10.4482 19.4374 10.625 19.4374H14.625C14.7967 19.4289 14.9587 19.3471 15.0775 19.209C15.1962 19.071 15.2625 18.8873 15.2625 18.6963C15.2625 18.5053 15.1962 18.3217 15.0775 18.1836C14.9587 18.0456 14.7967 17.9638 14.625 17.9552H11.2917C11.1603 17.9552 11.031 17.9115 10.9217 17.8315C10.4117 17.4535 8.883 16.4731 7.95833 16.4731C7.23167 16.4731 6.39367 17.1252 5.95833 17.5395V23.1428Z" fill="#FEFCFF"/>
</g>
<defs>
<clipPath id="clip0_209_161">
<rect x="4" y="4" width="20" height="20" rx="10" fill="white"/>
</clipPath>
</defs>
</svg>
